<?xml version="1.0" standalone="no"?>
<!DOCTYPE svg PUBLIC "-//W3C//DTD SVG 1.1//EN" "http://www.w3.org/Graphics/SVG/1.1/DTD/svg11.dtd" >
<svg xmlns="http://www.w3.org/2000/svg">
<metadata>Generated by IcoMoon</metadata>
<defs>
<font id="icomoon" horiz-adv-x="1024">
<font-face units-per-em="1024" ascent="960" descent="-64" />
<missing-glyph horiz-adv-x="1024" />
<glyph unicode="&#x20;" horiz-adv-x="512" d="" />
<glyph unicode="&#xe900;" d="M213.335 917.333h-128c-11.316 0-22.168-4.495-30.17-12.497s-12.497-18.854-12.497-30.17v-853.332c0-11.318 4.495-22.17 12.497-30.17 8.002-8.003 18.854-12.499 30.17-12.499h128v938.668z" />
<glyph unicode="&#xe901;" d="M298.668-21.334h426.667v938.668h-426.667v-938.668zM512 149.334c-11.315 0-22.166 4.493-30.17 12.496-8 8-12.496 18.854-12.496 30.17s4.496 22.17 12.496 30.17c8.003 8.003 18.854 12.496 30.17 12.496 11.318 0 22.17-4.493 30.173-12.496 8-8 12.496-18.854 12.496-30.17s-4.496-22.17-12.496-30.17c-8.003-8.003-18.854-12.496-30.173-12.496zM512 746.667c11.318 0 22.17-4.495 30.173-12.497 8-8.002 12.496-18.854 12.496-30.17s-4.496-22.168-12.496-30.17c-8.003-8.002-18.854-12.497-30.173-12.497-11.315 0-22.166 4.495-30.17 12.497-8 8.002-12.496 18.854-12.496 30.17s4.496 22.168 12.496 30.17c8.003 8.002 18.854 12.497 30.17 12.497zM512 490.666c11.318 0 22.17-4.493 30.173-12.496 8-8 12.496-18.854 12.496-30.17s-4.496-22.17-12.496-30.17c-8.003-8.003-18.854-12.496-30.173-12.496-11.315 0-22.166 4.493-30.17 12.496-8 8-12.496 18.854-12.496 30.17s4.496 22.17 12.496 30.17c8.003 8.003 18.854 12.496 30.17 12.496z" />
<glyph unicode="&#xe902;" d="M938.669 917.333h-128v-938.668h128c11.315 0 22.166 4.496 30.17 12.499 8 8 12.496 18.851 12.496 30.17v853.332c0 11.316-4.496 22.169-12.496 30.17-8.003 8.002-18.854 12.497-30.17 12.497z" />
<glyph unicode="&#xe903;" horiz-adv-x="993" d="M372.364 530.745h-289.615c-10.973 0-21.497 4.36-29.256 12.117-7.759 7.761-12.118 18.283-12.118 29.258v289.615c0 10.973 4.359 21.497 12.118 29.256s18.283 12.118 29.256 12.118h289.615c10.975 0 21.498-4.359 29.258-12.118 7.758-7.759 12.117-18.283 12.117-29.256v-289.615c0-10.975-4.36-21.498-12.117-29.258-7.761-7.758-18.283-12.117-29.258-12.117z" />
<glyph unicode="&#xe904;" horiz-adv-x="993" d="M372.364-7.112h-289.615c-10.973 0-21.497 4.357-29.256 12.117-7.759 7.758-12.118 18.283-12.118 29.255v289.615c0 10.972 4.359 21.498 12.118 29.255 7.759 7.761 18.283 12.12 29.256 12.12h289.615c10.975 0 21.498-4.36 29.258-12.12 7.758-7.758 12.117-18.283 12.117-29.255v-289.615c0-10.972-4.36-21.498-12.117-29.255-7.761-7.761-18.283-12.117-29.258-12.117z" />
<glyph unicode="&#xe905;" horiz-adv-x="993" d="M537.861 861.735h413.736v-82.747h-413.736v82.747z" />
<glyph unicode="&#xe906;" horiz-adv-x="993" d="M951.597 323.879h-413.736v-82.749h413.736v82.749z" />
<glyph unicode="&#xe907;" horiz-adv-x="993" d="M951.597 117.009h-413.736v-82.749h413.736v82.749z" />
<glyph unicode="&#xe908;" horiz-adv-x="993" d="M951.597 654.868h-413.736v-82.746h413.736v82.746z" />
<glyph unicode="&#xe909;" d="M768 533.334h256l-128 170.666-128-170.666zM768 362.666h256l-128-170.666-128 170.666z" />
<glyph unicode="&#xe90a;" d="M42.667 960h256v-1024h-256c-11.316 0-22.168 4.496-30.17 12.496-8.002 8.003-12.497 18.854-12.497 30.17v938.668c0 11.316 4.495 22.168 12.497 30.17s18.854 12.497 30.17 12.497z" />
<glyph unicode="&#xe90b;" d="M384 960h256c11.315 0 22.17-4.495 30.17-12.497 8.003-8.002 12.496-18.854 12.496-30.17v-938.668c0-11.315-4.493-22.166-12.496-30.17-8-8-18.854-12.496-30.17-12.496h-256v1024z" />
<glyph unicode="&#xe90c;" d="M170.668 917.333h810.667l-128-256h-810.667l128 256z" />
<glyph unicode="&#xe90d;" d="M170.668 576h810.667l-128-256h-810.667l128 256z" />
<glyph unicode="&#xe90e;" d="M170.668 234.666h810.667l-128-256h-810.667l128 256z" />
<glyph unicode="&#xe90f;" d="M896-64h-384c-11.315 0-22.166 4.496-30.17 12.496-8 8.003-12.496 18.854-12.496 30.17v85.334c0 11.315 4.496 22.17 12.496 30.17 8.003 8.003 18.854 12.496 30.17 12.496h384c11.315 0 22.17-4.493 30.17-12.496 8.003-8 12.499-18.854 12.499-30.17v-85.334c0-11.315-4.496-22.166-12.499-30.17-8-8-18.854-12.496-30.17-12.496z" />
<glyph unicode="&#xe910;" d="M896 960h-767.999c-11.316 0-22.168-4.495-30.17-12.497s-12.497-18.854-12.497-30.17v-85.333c0-11.316 4.495-22.168 12.497-30.17s18.854-12.497 30.17-12.497h767.999c11.315 0 22.17 4.495 30.17 12.497 8.003 8.002 12.499 18.854 12.499 30.17v85.333c0 11.316-4.496 22.168-12.499 30.17-8 8.002-18.854 12.497-30.17 12.497z" />
<glyph unicode="&#xe911;" d="M896 704h-767.999c-11.316 0-22.168-4.495-30.17-12.497s-12.497-18.854-12.497-30.17v-426.668c0-11.315 4.495-22.166 12.497-30.17 8.002-8 18.854-12.496 30.17-12.496h767.999c11.315 0 22.17 4.496 30.17 12.496 8.003 8.003 12.499 18.854 12.499 30.17v426.668c0 11.316-4.496 22.168-12.499 30.17-8 8.002-18.854 12.497-30.17 12.497z" />
<glyph unicode="&#xe912;" d="M981.334 704v170.667c0 11.316-4.496 22.168-12.496 30.17-8.003 8.002-18.854 12.497-30.17 12.497h-853.334c-11.316 0-22.168-4.495-30.17-12.497s-12.497-18.854-12.497-30.17v-170.667h938.667z" />
<glyph unicode="&#xe913;" d="M42.668 618.666v-597.331c0-11.315 4.495-22.17 12.497-30.17 8.002-8.003 18.854-12.499 30.17-12.499h213.333v640h-256z" />
<glyph unicode="&#xe914;" d="M384-21.334h554.666c11.318 0 22.17 4.496 30.17 12.499 8.003 8 12.499 18.854 12.499 30.17v597.331h-597.334v-640z" />
<glyph unicode="&#xe915;" d="M486.659 954.368l-461.654-215.68c-3.122-1.432-5.767-3.73-7.619-6.622s-2.835-6.255-2.831-9.69c0.005-3.435 0.996-6.796 2.856-9.683s4.511-5.179 7.637-6.603l465.279-214.1c13.741-6.317 29.613-6.317 43.35 0l465.28 214.1c3.126 1.42 5.782 3.708 7.645 6.592 1.866 2.885 2.861 6.244 2.87 9.679s-0.97 6.799-2.819 9.694c-1.85 2.894-4.49 5.196-7.61 6.632l-461.696 215.68c-7.936 3.708-16.586 5.63-25.344 5.63s-17.411-1.922-25.344-5.63v0z" />
<glyph unicode="&#xe916;" d="M999.040 461.824l-95.36 44.544c-6.829 3.19-14.272 4.854-21.811 4.877-7.536 0.022-14.989-1.597-21.837-4.749l-326.358-150.186c-6.797-3.126-14.192-4.746-21.674-4.746s-14.877 1.619-21.674 4.746l-326.401 150.186c-6.842 3.146-14.287 4.762-21.817 4.739s-14.965-1.683-21.788-4.867l-95.36-44.544c-3.12-1.437-5.762-3.738-7.611-6.634-1.849-2.893-2.827-6.259-2.818-9.693s1.005-6.794 2.869-9.68c1.864-2.883 4.518-5.171 7.645-6.592l465.281-214.058c6.794-3.142 14.189-4.771 21.674-4.771s14.88 1.629 21.674 4.771l465.28 214.058c3.13 1.421 5.782 3.709 7.648 6.592 1.862 2.886 2.858 6.246 2.867 9.68s-0.97 6.8-2.819 9.693c-1.846 2.896-4.49 5.197-7.61 6.634z" />
<glyph unicode="&#xe917;" d="M999.040 187.392l-95.36 44.544c-6.829 3.19-14.272 4.854-21.808 4.877-7.539 0.022-14.992-1.597-21.84-4.749l-326.355-150.144c-6.8-3.126-14.195-4.746-21.677-4.746s-14.877 1.619-21.674 4.746l-326.4 150.186c-6.842 3.146-14.287 4.762-21.817 4.739-7.53-0.019-14.965-1.683-21.788-4.867l-95.36-44.586c-3.108-1.44-5.738-3.744-7.578-6.634s-2.813-6.246-2.804-9.67c0.009-3.427 1-6.778 2.855-9.658s4.497-5.168 7.613-6.592l465.28-214.102c13.738-6.314 29.61-6.314 43.35 0l465.28 214.102c3.114 1.424 5.757 3.712 7.613 6.592 1.853 2.88 2.845 6.23 2.854 9.658 0.010 3.424-0.966 6.781-2.806 9.67s-4.47 5.194-7.578 6.634z" />
</font>
</defs>
</svg>
